<svg width="160" height="160" viewBox="0 0 160 160" fill="none" xmlns="http://www.w3.org/2000/svg">
<path d="M9 103.156V100.277C9 98.9309 9.89663 97.7496 11.1931 97.3876L138.761 61.7648C140.297 61.336 141.9 62.1834 142.41 63.6941L153.027 95.1184C153.562 96.7034 152.698 98.4202 151.105 98.9338L138.5 103L120.5 108L83.3274 116.426C83.1098 116.475 82.8874 116.5 82.6643 116.5H76.0098C75.6724 116.5 75.3373 116.557 75.0188 116.668L65.5 120L51.7589 125.496C50.9586 125.817 50.0593 125.777 49.2902 125.388L10.6455 105.833C9.63621 105.322 9 104.287 9 103.156Z" fill="#3CDD9F" stroke="black" stroke-width="0.5"/>
<path d="M88 107.457C88 116.546 81.2084 123 74.8571 123C68.5059 123 65 116.546 65 107.457C65 98.3681 70.1487 91 76.5 91C82.8513 91 88 98.3681 88 107.457Z" fill="#3CDD9F"/>
<path d="M143 95.4571C143 104.546 136.208 111 129.857 111C123.506 111 120 104.546 120 95.4571C120 86.3681 125.149 79 131.5 79C137.851 79 143 86.3681 143 95.4571Z" fill="#3CDD9F"/>
<path d="M141 94.4571C141 103.546 134.208 110 127.857 110C121.506 110 118 103.546 118 94.4571C118 85.3681 123.149 78 129.5 78C135.851 78 141 85.3681 141 94.4571Z" fill="#3CDD9F"/>
<path d="M101.114 34C103.646 34 122.426 42.1103 131.499 46.1655C142 50 152.5 90 149.857 96.7482L139.728 100.59C139.095 96.5348 136.183 88.2964 129.6 87.7842C123.016 87.2719 118.416 98.6691 116.939 104.432L84.0218 112.115C84.0218 108.273 82.1227 100.59 74.5264 100.59C66.93 100.59 64.1869 112.969 63.7649 119.158L52.3703 123L9.95736 100.59C8.48029 97.8153 6.41239 89.9611 9.95736 80.741C14.3886 69.2158 35.2785 70.4964 35.2785 66.6547C35.2785 63.6199 46.3884 49.9306 52.1528 43.217C52.2964 43.0498 52.4807 42.9411 52.6965 42.8963C61.0624 41.1581 78.5237 37.4376 84.0218 35.9209C90.9852 34 97.9485 34 101.114 34Z" fill="#D8F8EC" stroke="black" stroke-width="0.5"/>
<path d="M81 56.5C80.0222 54.0665 61.6777 46.3429 53.1747 43.2436C52.7699 43.096 52.3208 43.229 52.0554 43.5684L42.4286 55.875C42.4286 55.875 38.5635 60.3523 37 63C35.7313 65.1483 35 67.5 35 67.5C46.9288 68.75 67.5907 84 68.8464 84C70.102 84 82.2557 59.625 81 56.5Z" fill="white" stroke="black" stroke-width="0.5"/>
<path d="M48.75 101.5C48.75 104.971 46.1572 107.75 43 107.75C39.8428 107.75 37.25 104.971 37.25 101.5C37.25 98.029 39.8428 95.25 43 95.25C46.1572 95.25 48.75 98.029 48.75 101.5Z" fill="white" stroke="black" stroke-width="0.5"/>
<path d="M19.7446 85.5806C18.6616 88.7544 15.2107 90.4494 12.0368 89.3664C11.2423 89.0953 10.7058 88.7326 10.3543 88.3066C10.004 87.882 9.8226 87.3764 9.76879 86.7922C9.65946 85.6053 10.0781 84.1346 10.6443 82.4753C11.2106 80.816 11.7782 79.3961 12.5903 78.5236C12.99 78.0942 13.4426 77.8049 13.9794 77.683C14.5179 77.5607 15.1643 77.6017 15.9588 77.8728C19.1327 78.9558 20.8276 82.4067 19.7446 85.5806Z" fill="white" stroke="black" stroke-width="0.5"/>
<path d="M18.2708 85.0979C17.1431 88.4025 13.8014 88.9448 11.9946 88.3282C10.1878 87.7117 11.9087 86.6163 13.0363 83.3118C14.1639 80.0072 14.6878 79.2118 16.4946 79.8283C18.3014 80.4449 19.3984 81.7934 18.2708 85.0979Z" fill="#3CDD9F"/>
<path d="M47.2708 103.098C46.1431 106.402 42.8014 106.945 40.9946 106.328C39.1878 105.712 40.9087 104.616 42.0363 101.312C43.1639 98.0072 43.6878 97.2118 45.4946 97.8283C47.3014 98.4449 48.3984 99.7934 47.2708 103.098Z" fill="#3CDD9F"/>
<path d="M20 87C24.2929 89.7513 33.2909 94.4603 37 97" stroke="black" stroke-width="0.5"/>
<path d="M19 89C23.4118 91.522 32.1882 96.672 36 99" stroke="black" stroke-width="0.5"/>
<path d="M92.9684 57.3204L108.469 55.3275C109.935 55.139 111.32 56.0465 111.732 57.4661L117.065 75.8227C117.564 77.5395 116.46 79.3088 114.698 79.6152L83.6734 85.0129C81.2829 85.4288 79.4133 82.9823 80.4424 80.785L90.6342 59.0235C91.0696 58.0938 91.9502 57.4513 92.9684 57.3204Z" fill="white" stroke="black" stroke-width="0.5"/>
<path d="M122.703 71.3796L117.182 56.3703C116.556 54.6687 117.571 52.805 119.34 52.4076L127.681 50.5336C129.065 50.2226 130.478 50.9237 131.067 52.214L137.554 66.4138C138.316 68.0809 137.418 70.0352 135.656 70.543L126.349 73.2265C124.838 73.6624 123.246 72.8562 122.703 71.3796Z" fill="white" stroke="black" stroke-width="0.5"/>
<path d="M83.75 113.314C83.75 119.405 78.272 123.75 73.1429 123.75C70.5996 123.75 68.6388 122.679 67.3058 120.853C65.9665 119.018 65.25 116.404 65.25 113.314C65.25 107.161 69.4305 102.25 74.5 102.25C79.5695 102.25 83.75 107.161 83.75 113.314Z" stroke="black" stroke-width="0.5"/>
<path d="M83.75 113.314C83.75 119.405 78.272 123.75 73.1429 123.75C70.5996 123.75 68.6388 122.679 67.3058 120.853C65.9665 119.018 65.25 116.404 65.25 113.314C65.25 107.161 69.4305 102.25 74.5 102.25C79.5695 102.25 83.75 107.161 83.75 113.314Z" fill="white" stroke="black" stroke-width="0.5"/>
<path d="M138.75 100.588C138.75 106.59 135.062 111.25 130 111.25C124.906 111.25 120.25 106.554 120.25 100.588C120.25 97.6004 121.294 94.7588 122.977 92.6677C124.66 90.5766 126.969 89.25 129.5 89.25C132.031 89.25 134.34 90.5766 136.023 92.6677C137.706 94.7588 138.75 97.6004 138.75 100.588Z" fill="white" stroke="black" stroke-width="0.5"/>
<path d="M146.327 40.8248L147.448 37.3404L148.575 40.84C149.373 43.318 151.236 45.3099 153.655 46.271L155.692 47.0802L153.94 47.7764C151.357 48.8024 149.419 50.998 148.72 53.6877L147.448 58.585L146.181 53.7037C145.48 51.0049 143.531 48.8041 140.936 47.7825L139.153 47.0802L141.222 46.2655C143.653 45.3083 145.526 43.3116 146.327 40.8248Z" fill="#FFDD00" stroke="black" stroke-width="0.208635"/>
<path d="M20.8674 118.736C18.7151 119.647 17.0957 121.501 16.4864 123.768L16.1237 125.116L15.7688 123.796C15.155 121.513 13.5208 119.648 11.3503 118.736C13.5394 117.822 15.2321 116.005 15.9849 113.747L16.1237 113.33L16.272 113.775C17.0193 116.017 18.6967 117.823 20.8674 118.736Z" fill="#FFDD00" stroke="black" stroke-width="0.208635"/>
</svg>
