<svg width="160" height="160" viewBox="0 0 160 160" fill="none" xmlns="http://www.w3.org/2000/svg">
<path d="M124.093 33.3265L124.093 140.224C124.093 143.097 121.764 145.427 118.891 145.427L38.6558 145.427C35.7041 145.427 33.3436 142.974 33.457 140.024L37.5915 32.4654C37.6989 29.6719 39.9947 27.4626 42.7903 27.4626L117.267 27.4626C117.94 27.4626 118.607 27.5932 119.23 27.8471L120.853 28.5083C122.812 29.3063 124.093 31.2111 124.093 33.3265Z" fill="#3CDD9F" stroke="#262627" stroke-width="0.48"/>
<path d="M38.3764 24.1269L115.596 24.1269C118.47 24.1269 120.799 26.4562 120.799 29.3295L120.799 135.82C120.799 138.693 118.47 141.023 115.596 141.023L35.2335 141.023C32.3001 141.023 29.9466 138.599 30.0332 135.666L33.176 29.176C33.259 26.3637 35.5628 24.1269 38.3764 24.1269Z" fill="#D8F8EC" stroke="#262627" stroke-width="0.48"/>
<path d="M126.213 16.7641L126.356 16.3318L126.509 16.7921C127.248 19.0236 128.913 20.8232 131.07 21.7359C128.931 22.647 127.324 24.4936 126.721 26.7491L126.356 28.114L125.999 26.7776C125.392 24.5057 123.77 22.6475 121.613 21.7359C123.789 20.8227 125.469 19.0119 126.213 16.7641Z" fill="#FFDD00" stroke="black" stroke-width="0.208635"/>
<path d="M22.2131 16.7641L22.3563 16.3318L22.5088 16.7921C23.2479 19.0236 24.9127 20.8232 27.07 21.7359C24.9309 22.647 23.3236 24.4936 22.7209 26.7491L22.3563 28.114L21.9993 26.7776C21.3923 24.5057 19.7702 22.6475 17.613 21.7359C19.7886 20.8227 21.4686 19.0119 22.2131 16.7641Z" fill="#FFDD00" stroke="black" stroke-width="0.208635"/>
<path d="M22.2131 138.097L22.3563 137.665L22.5088 138.125C23.2479 140.357 24.9127 142.157 27.07 143.069C24.9309 143.98 23.3236 145.827 22.7209 148.083L22.3563 149.447L21.9993 148.111C21.3923 145.839 19.7702 143.981 17.613 143.069C19.7886 142.156 21.4686 140.345 22.2131 138.097Z" fill="#FFDD00" stroke="black" stroke-width="0.208635"/>
<path d="M20.2833 34.677C21.3166 34.2303 22.1248 33.3763 22.5115 32.3117C22.8933 33.3749 23.6968 34.229 24.7259 34.677C23.7023 35.129 22.9263 36.0138 22.6159 37.0982L22.5115 37.4627L22.4113 37.1125C22.0986 36.0201 21.3155 35.1296 20.2833 34.677Z" fill="#FFDD00" stroke="black" stroke-width="0.208635"/>
<path d="M128.115 132.526L128.186 132.32L128.265 132.549C128.897 134.38 130.281 135.848 132.061 136.589C130.297 137.329 128.962 138.838 128.446 140.691L128.186 141.625L127.932 140.715C127.413 138.849 126.066 137.33 124.286 136.589C126.082 135.847 127.479 134.37 128.115 132.526Z" fill="#FFDD00" stroke="black" stroke-width="0.208635"/>
<path d="M56.4359 36.3892C55.4041 36.3992 54.5757 37.2438 54.5856 38.2756C54.5956 39.3075 55.4402 40.1359 56.4721 40.1259L109.808 39.6103C110.84 39.6003 111.668 38.7557 111.658 37.7239C111.648 36.692 110.804 35.8636 109.772 35.8736L56.4359 36.3892Z" fill="white" stroke="#262627" stroke-width="0.32656"/>
<path d="M42.5522 71.5758C41.5403 71.5856 40.7278 72.4139 40.7376 73.4258C40.7474 74.4378 41.5757 75.2502 42.5876 75.2404L51.7671 75.1516C52.7791 75.1419 53.5915 74.3136 53.5817 73.3017C53.5719 72.2897 52.7437 71.4773 51.7317 71.4871L42.5522 71.5758Z" fill="white" stroke="#262627" stroke-width="0.32656"/>
<path d="M46.5534 86.5596C45.311 86.5716 44.3136 87.5885 44.3256 88.8309C44.3377 90.0733 45.3545 91.0707 46.5969 91.0587L51.5034 91.0112C52.7457 90.9992 53.7432 89.9823 53.7311 88.7399C53.7191 87.4976 52.7022 86.5002 51.4599 86.5122L46.5534 86.5596Z" fill="white" stroke="#262627" stroke-width="0.32656"/>
<path d="M107.633 54.6356L83.4321 54.8695C82.4201 54.8793 81.6077 55.7076 81.6175 56.7195C81.6273 57.7315 82.4556 58.5439 83.4675 58.5341L107.668 58.3001C108.68 58.2903 109.492 57.4621 109.483 56.4501C109.473 55.4382 108.645 54.6258 107.633 54.6356Z" fill="white" stroke="#262627" stroke-width="0.32656"/>
<path d="M78.9701 71.2238L78.8068 71.2254L78.8084 71.3887L78.8326 73.8922L78.8342 74.0554L78.9975 74.0539L111.426 73.7403C112.208 73.7328 112.835 73.0931 112.828 72.3116C112.82 71.5301 112.18 70.9027 111.399 70.9103L78.9701 71.2238Z" fill="white" stroke="#262627" stroke-width="0.32656"/>
<path d="M94.2892 113.265C93.5077 113.272 92.8803 113.912 92.8879 114.693C92.8954 115.475 93.5351 116.102 94.3166 116.095L111.841 115.925C112.623 115.918 113.25 115.278 113.242 114.496C113.235 113.715 112.595 113.088 111.814 113.095L94.2892 113.265Z" fill="white" stroke="#262627" stroke-width="0.32656"/>
<path d="M62.653 78.8928L62.4897 78.8943L62.4913 79.0576L62.5235 82.3956L62.5251 82.5589L62.6884 82.5573L111.089 82.0894C112.101 82.0796 112.914 81.2513 112.904 80.2394C112.894 79.2274 112.066 78.415 111.054 78.4248L62.653 78.8928Z" fill="white" stroke="#262627" stroke-width="0.32656"/>
<path d="M62.7257 86.4031L62.5624 86.4047L62.564 86.568L62.6044 90.7405L62.6059 90.9038L62.7692 90.9022L110.753 90.4383C111.995 90.4263 112.993 89.4094 112.981 88.167C112.969 86.9246 111.952 85.9272 110.71 85.9392L62.7257 86.4031Z" fill="white" stroke="#262627" stroke-width="0.32656"/>
<path d="M103.704 121.602C102.462 121.614 101.464 122.63 101.476 123.873C101.488 125.115 102.505 126.113 103.748 126.101L111.258 126.028C112.5 126.016 113.498 124.999 113.486 123.757C113.474 122.514 112.457 121.517 111.215 121.529L103.704 121.602Z" fill="white" stroke="#262627" stroke-width="0.32656"/>
<path d="M71.3835 65.9274L71.3853 66.111L71.5689 66.1093L72.9237 66.0962L73.1073 66.0944L73.1055 65.9108L73.0882 64.1227C74.7815 64.011 76.072 63.4882 76.9459 62.6841C77.852 61.8505 78.2946 60.7288 78.2827 59.4968C78.2671 57.8875 77.6979 56.8607 76.7181 56.1329C75.7841 55.4392 74.4858 55.025 72.9962 54.6035L72.9533 50.1652C73.5506 50.3148 74.0234 50.5917 74.3775 50.9944C74.7754 51.4466 75.0365 52.0722 75.143 52.8917L75.164 53.0533L75.3268 53.0517L77.6301 53.0294L77.8254 53.0275L77.8114 52.8327C77.7042 51.3383 77.1515 50.143 76.2636 49.2814C75.4112 48.4543 74.2615 47.9458 72.9301 47.7659L72.9155 46.2567L72.9137 46.0731L72.7301 46.0748L71.3753 46.0879L71.1917 46.0897L71.1935 46.2733L71.2073 47.7001C69.6999 47.7985 68.4592 48.2602 67.5862 49.0235C66.6759 49.8195 66.18 50.9313 66.1928 52.2568C66.2066 53.6843 66.9181 54.6485 67.9163 55.3249C68.8861 55.982 70.1348 56.3743 71.2941 56.6767L71.3428 61.7207C70.4353 61.5785 69.7403 61.2443 69.2433 60.7451C68.7094 60.2087 68.3875 59.4649 68.2909 58.5159L68.2739 58.3493L68.1065 58.3509L65.8032 58.3732L65.6106 58.3751L65.6217 58.5674C65.7193 60.2491 66.3902 61.5646 67.4481 62.4943C68.4666 63.3893 69.8327 63.9174 71.3657 64.0837L71.3835 65.9274ZM71.2691 54.0989C70.5633 53.8724 69.9897 53.6433 69.5798 53.3411C69.1375 53.015 68.8894 52.6067 68.8836 52.0051C68.8781 51.4317 69.1114 50.9753 69.5377 50.6442C69.9351 50.3354 70.5091 50.1297 71.2301 50.0583L71.2691 54.0989ZM75.5904 59.5905C75.5963 60.2076 75.4216 60.718 75.0135 61.093C74.6263 61.4488 74.0064 61.7039 73.0657 61.7884L73.0209 57.1582C73.8798 57.4282 74.5021 57.7005 74.9196 58.0522C75.361 58.424 75.5836 58.8934 75.5904 59.5905Z" fill="white" stroke="black" stroke-width="0.367198"/>
</svg>
