<svg width="160" height="160" viewBox="0 0 160 160" fill="none" xmlns="http://www.w3.org/2000/svg">
<rect x="23.4431" y="46.8946" width="119.888" height="73.2215" rx="11.772" fill="#3CDD9F" stroke="black" stroke-width="0.541936"/>
<rect x="21.5613" y="45.0129" width="119.888" height="73.2215" rx="11.772" fill="#D8F8EC" stroke="black" stroke-width="0.541936"/>
<path d="M79.3987 106.569L79.391 106.776L79.5982 106.783L83.2253 106.917L83.4324 106.924L83.44 106.717L83.6261 101.66C88.2548 101.617 91.7955 100.384 94.2197 98.353C96.681 96.2912 97.9729 93.4227 98.0916 90.1978C98.2471 85.9704 96.884 83.2404 94.4274 81.2322C92.0201 79.2643 88.5724 77.9992 84.546 76.6592L85.0044 64.2028C86.7994 64.6745 88.1996 65.5359 89.2056 66.7927C90.2584 68.1079 90.8931 69.8733 91.0794 72.1195L91.0946 72.3028L91.2784 72.3095L97.4444 72.5364L97.6648 72.5445L97.6593 72.324C97.5597 68.3737 96.2518 65.1755 94.036 62.816C91.8581 60.4969 88.816 59.0017 85.2183 58.3885L85.3761 54.1004L85.3837 53.8933L85.1766 53.8856L81.5495 53.7522L81.3423 53.7446L81.3347 53.9517L81.1842 58.0418C77.0636 58.0731 73.6559 59.1468 71.2327 61.0747C68.7663 63.0369 67.3367 65.871 67.209 69.3412C67.0726 73.0488 68.795 75.6354 71.3253 77.5272C73.8455 79.4114 77.1766 80.615 80.2902 81.5767L80.3163 81.5848L80.3179 81.5849L79.8008 95.6385C77.1826 95.1601 75.1964 94.1318 73.8211 92.6154C72.4057 91.0547 71.6195 88.9571 71.4764 86.3564L71.466 86.1676L71.277 86.1606L65.111 85.9337L64.8936 85.9257L64.8961 86.1433C64.9471 90.5834 66.5501 94.1131 69.208 96.677C71.8237 99.2001 75.4484 100.776 79.5896 101.379L79.3987 106.569ZM80.5494 75.2942C78.5178 74.5527 76.8418 73.8224 75.6739 72.8745C74.4696 71.8969 73.8091 70.6913 73.872 68.9815C73.9318 67.3559 74.6588 66.0821 75.9119 65.1989C77.1304 64.34 78.8578 63.8434 80.9732 63.777L80.5494 75.2942ZM91.4441 90.1347C91.3812 91.8445 90.828 93.2737 89.6119 94.2912C88.4214 95.2873 86.5668 95.9133 83.8349 95.9865L84.3166 82.8957C86.7775 83.7739 88.574 84.6281 89.7495 85.7155C90.9517 86.8276 91.5155 88.1948 91.4441 90.1347Z" fill="#3CDD9F" stroke="black" stroke-width="0.414578"/>
<path d="M76.29 105.014L76.2824 105.222L76.4895 105.229L80.1166 105.363L80.3238 105.37L80.3314 105.163L80.5175 100.106C85.1462 100.063 88.6868 98.8295 91.111 96.7988C93.5723 94.737 94.8643 91.8685 94.9829 88.6436C95.1385 84.4162 93.7753 81.6862 91.3187 79.678C88.9114 77.7101 85.4638 76.445 81.4374 75.105L81.8957 62.6486C83.6908 63.1203 85.091 63.9817 86.097 65.2385C87.1498 66.5537 87.7845 68.3191 87.9708 70.5653L87.986 70.7486L88.1697 70.7553L94.3358 70.9822L94.5562 70.9903L94.5506 70.7698C94.451 66.8195 93.1432 63.6213 90.9273 61.2618C88.7494 58.9427 85.7074 57.4475 82.1097 56.8343L82.2674 52.5462L82.2751 52.3391L82.0679 52.3314L78.4408 52.198L78.2337 52.1904L78.2261 52.3975L78.0756 56.4876C73.955 56.5189 70.5473 57.5927 68.1241 59.5205C65.6577 61.4827 64.228 64.3168 64.1004 67.787C63.9639 71.4946 65.6864 74.0812 68.2167 75.973C70.7369 77.8572 74.068 79.0608 77.1815 80.0225L77.2077 80.0306L77.2093 80.0307L76.6922 94.0843C74.074 93.6059 72.0877 92.5776 70.7125 91.0612C69.2971 89.5005 68.5109 87.4029 68.3677 84.8022L68.3573 84.6134L68.1684 84.6064L62.0023 84.3795L61.7849 84.3715L61.7874 84.5891C61.8385 89.0292 63.4415 92.5589 66.0994 95.1228C68.715 97.6459 72.3397 99.2221 76.481 99.8246L76.29 105.014ZM77.4408 73.74C75.4092 72.9985 73.7331 72.2682 72.5653 71.3203C71.361 70.3427 70.7005 69.1371 70.7634 67.4273C70.8232 65.8017 71.5501 64.5279 72.8032 63.6447C74.0217 62.7858 75.7492 62.2892 77.8645 62.2228L77.4408 73.74ZM88.3355 88.5805C88.2726 90.2903 87.7194 91.7195 86.5032 92.737C85.3127 93.7331 83.4582 94.3591 80.7262 94.4323L81.2079 81.3415C83.6689 82.2197 85.4654 83.0739 86.6409 84.1613C87.8431 85.2734 88.4069 86.6406 88.3355 88.5805Z" fill="white" stroke="black" stroke-width="0.414578"/>
<circle cx="122.903" cy="82" r="4.24516" fill="#3CDD9F" stroke="black" stroke-width="0.541936"/>
<circle cx="41.6128" cy="82" r="4.24516" fill="#3CDD9F" stroke="black" stroke-width="0.541936"/>
<circle cx="121.774" cy="82" r="4.22611" fill="white" stroke="black" stroke-width="0.580029"/>
<circle cx="40.4839" cy="82" r="4.22611" fill="white" stroke="black" stroke-width="0.580029"/>
<path d="M144.704 40.0659L144.935 39.3817L145.171 40.0787C145.905 42.2443 147.57 43.9675 149.709 44.7751L149.746 44.7892C147.569 45.6897 145.925 47.5487 145.301 49.8302L144.935 51.1694L144.574 49.8475C143.948 47.5565 142.283 45.6877 140.094 44.7893L140.145 44.7702C142.294 43.966 143.967 42.2389 144.704 40.0659Z" fill="#FFDD00" stroke="black" stroke-width="0.18282"/>
<path d="M15.7914 112.766L16.2293 111.612L16.6716 112.778C17.4827 114.915 19.2083 116.577 21.3747 117.307L22.1331 117.563L21.6665 117.72C19.3332 118.506 17.5218 120.369 16.801 122.723L16.2293 124.591L15.6613 122.736C14.9384 120.374 13.1187 118.508 10.7764 117.726L10.2885 117.563L11.0689 117.302C13.244 116.575 14.9777 114.91 15.7914 112.766Z" fill="#FFDD00" stroke="black" stroke-width="0.18282"/>
</svg>
