<svg xmlns="http://www.w3.org/2000/svg" fill="none" viewBox="0 0 120 25" height="25" width="120">
<g clip-path="url(#clip0_9474_1753)">
<path fill="#262627" d="M24.5731 24.1711V0.544306H33.0136C36.9118 0.544306 39.9626 1.62912 42.1322 3.83239C44.3355 6.00182 45.4203 8.84927 45.4203 12.4086C45.4203 15.9678 44.3355 18.8152 42.166 20.9508C39.9965 23.0864 36.9458 24.1711 33.0475 24.1711H24.5731ZM28.8102 20.3407H32.7425C38.6067 20.3407 41.1829 17.256 41.1829 12.4086C41.1829 7.42566 38.6408 4.3748 32.7085 4.3748H28.8102V20.3407Z"></path>
<path fill="#262627" d="M48.9456 24.1711V0.544306H58.1318C60.2674 0.544306 62.064 1.25623 63.5555 2.71378C65.0471 4.13746 65.7928 5.90025 65.7928 8.03573C65.7928 11.1205 64.0641 13.6628 61.4878 14.7476L67.2166 24.1711H62.437L57.3862 15.7645H57.3184H53.1828V24.1711H48.9456ZM53.1828 11.968H57.6913C59.9963 11.968 61.5895 10.3747 61.5895 8.10351C61.5895 5.93404 60.0641 4.3748 58.0302 4.3748H53.1828V11.968Z"></path>
<path fill="#262627" d="M69.6683 24.1711H73.9055V0.544306H69.6683V24.1711Z"></path>
<path fill="#262627" d="M96.0637 0.544306L89.5103 17.934L81.9621 0.544306H77.4877L87.2503 24.1711H90.7755L100.538 0.544306H96.0637Z"></path>
<path fill="#262627" d="M105.998 0.544306L96.1339 24.1711H100.608L102.541 19.4593H113.049L114.981 24.1711H119.456L109.591 0.544306H105.998ZM107.795 6.34089L111.727 15.9679H103.863L107.795 6.34089Z"></path>
<path fill="#3CDD9F" d="M0.544312 4.83765L20.4414 4.83777V0.600475H0.544312V4.83765Z"></path>
<path fill="#3CDD9F" d="M0.544312 24.1086L20.4414 24.1088V19.8716L0.544312 19.8715V24.1086Z"></path>
<path fill="#3CDD9F" d="M0.544312 11.1785L20.4414 11.1786V6.9413L0.544312 6.94118V11.1785Z"></path>
<path fill="#3CDD9F" d="M0.544312 17.6435L20.4414 17.6438V13.4065L0.544312 13.4064V17.6435Z"></path>
</g>
<defs>
<clipPath id="clip0_9474_1753">
<rect fill="white" height="24.7155" width="120"></rect>
</clipPath>
</defs>
</svg>
