<svg id="Logo" xmlns="http://www.w3.org/2000/svg" xmlns:xlink="http://www.w3.org/1999/xlink" width="146" height="30.001" viewBox="0 0 146 30.001">
  <defs>
    <clipPath id="clip-path">
      <path id="Icon" d="M0,30V24.324H21.9V30Zm0-8.108V16.216H21.9v5.676Zm0-8.108V8.108H21.9v5.676ZM0,5.676V0H21.9V5.676Z" fill="#fff"/>
    </clipPath>
    <clipPath id="clip-path-2">
      <path id="Combined_Shape" data-name="Combined Shape" d="M95.475,30H89.839L102.264.077h4.525L119.214,30h-5.636l-2.434-5.967H97.908L95.475,30h0Zm4.1-10.39h9.905L104.527,7.418ZM35.655,30H30.318V.077H41.89a9.3,9.3,0,0,1,6.831,2.747,8.882,8.882,0,0,1,2.818,6.741,9.514,9.514,0,0,1-1.494,5.2,8.711,8.711,0,0,1-3.928,3.3L53.332,30h-6.02L40.95,19.353H35.655V30h0Zm0-15.456h5.679a4.69,4.69,0,0,0,4.91-4.894,4.455,4.455,0,0,0-4.483-4.722H35.655ZM77.627,30,65.33.077h5.636L79.847,22.1,88.729.077h5.636L82.067,30Zm-21.05,0V.077h5.337V30ZM0,29.923V0H10.632a19.32,19.32,0,0,1,6.559,1.035,13.005,13.005,0,0,1,4.926,3.129,13.362,13.362,0,0,1,3.112,4.77,17.1,17.1,0,0,1,1.03,6.091,17.141,17.141,0,0,1-1.025,6.085,13.18,13.18,0,0,1-3.074,4.733c-2.734,2.707-6.6,4.078-11.486,4.078Zm5.337-4.851H10.29c6.955,0,10.632-3.474,10.632-10.045,0-6.751-3.592-10.175-10.675-10.175H5.337Z" fill="#fff"/>
    </clipPath>
  </defs>
  <g id="Logo-2" data-name="Logo">
    <g id="Icon-2" data-name="Icon">
      <path id="Icon-3" data-name="Icon" d="M0,30V24.324H21.9V30Zm0-8.108V16.216H21.9v5.676Zm0-8.108V8.108H21.9v5.676ZM0,5.676V0H21.9V5.676Z" fill="#fff"/>
      <g id="Icon-4" data-name="Icon" clip-path="url(#clip-path)">
        <g id="Colour_Green" data-name="Colour / Green" transform="translate(0.308 -0.367)">
          <rect id="Rectangle" width="21.9" height="30" fill="#1c242a"/>
        </g>
      </g>
    </g>
    <g id="Wordmark" transform="translate(26.767)">
      <path id="Combined_Shape-2" data-name="Combined Shape" d="M95.475,30H89.839L102.264.077h4.525L119.214,30h-5.636l-2.434-5.967H97.908L95.475,30h0Zm4.1-10.39h9.905L104.527,7.418ZM35.655,30H30.318V.077H41.89a9.3,9.3,0,0,1,6.831,2.747,8.882,8.882,0,0,1,2.818,6.741,9.514,9.514,0,0,1-1.494,5.2,8.711,8.711,0,0,1-3.928,3.3L53.332,30h-6.02L40.95,19.353H35.655V30h0Zm0-15.456h5.679a4.69,4.69,0,0,0,4.91-4.894,4.455,4.455,0,0,0-4.483-4.722H35.655ZM77.627,30,65.33.077h5.636L79.847,22.1,88.729.077h5.636L82.067,30Zm-21.05,0V.077h5.337V30ZM0,29.923V0H10.632a19.32,19.32,0,0,1,6.559,1.035,13.005,13.005,0,0,1,4.926,3.129,13.362,13.362,0,0,1,3.112,4.77,17.1,17.1,0,0,1,1.03,6.091,17.141,17.141,0,0,1-1.025,6.085,13.18,13.18,0,0,1-3.074,4.733c-2.734,2.707-6.6,4.078-11.486,4.078Zm5.337-4.851H10.29c6.955,0,10.632-3.474,10.632-10.045,0-6.751-3.592-10.175-10.675-10.175H5.337Z" transform="translate(0)" fill="#fff"/>
      <g id="Wordmark-2" data-name="Wordmark" transform="translate(0)" clip-path="url(#clip-path-2)">
        <g id="Colour_Green-2" data-name="Colour / Green" transform="translate(-4.056)">
          <rect id="Rectangle-2" data-name="Rectangle" width="123.289" height="30" fill="#1c242a"/>
        </g>
      </g>
    </g>
  </g>
</svg>
