<svg width="160" height="160" viewBox="0 0 160 160" fill="none" xmlns="http://www.w3.org/2000/svg">
<path d="M41.8961 120.276V80.1473C41.8961 78.3419 40.4325 76.8783 38.6272 76.8783C35.7532 76.8783 34.2779 73.4363 36.2599 71.3551L77.3177 28.2415C78.0727 27.4487 79.1196 27 80.2144 27H84.4253C85.5141 27 86.5559 27.4438 87.3101 28.2291L131.076 73.7932C132.473 75.2475 131.442 77.6667 129.425 77.6667C128.162 77.6667 127.137 78.6912 127.137 79.9549V119.539C127.137 121.218 126.09 122.717 124.514 123.295L119.239 125.229C118.751 125.408 118.233 125.49 117.713 125.471L85.6481 124.276H45.8961C43.687 124.276 41.8961 122.486 41.8961 120.276Z" fill="#3CDD9F" stroke="black" stroke-width="0.5"/>
<path d="M30.569 72.8149L75.0184 29.7403C76.5872 28.22 79.0857 28.2396 80.6304 29.7844L125.097 74.2514C126.559 75.7128 125.524 78.2117 123.457 78.2117C122.176 78.2117 121.137 79.2503 121.137 80.5316V121.61C121.137 123.819 119.346 125.61 117.137 125.61H79.6481H39.8961C37.687 125.61 35.8961 123.819 35.8961 121.61V81.3528C35.8961 79.618 34.4898 78.2117 32.755 78.2117C29.9327 78.2117 28.5423 74.7789 30.569 72.8149Z" fill="#CCF8DF" stroke="black" stroke-width="0.48"/>
<path d="M28.9746 125.724C30.9139 124.815 32.4049 123.146 33.0837 121.097L33.0922 121.122C33.766 123.157 35.2438 124.816 37.1671 125.724C35.2622 126.636 33.8391 128.339 33.2892 130.398L33.0837 131.167L32.8853 130.424C32.3314 128.351 30.8954 126.637 28.9746 125.724Z" fill="#FFDD00" stroke="black" stroke-width="0.48"/>
<path d="M119.804 42.3907C117.899 43.3027 116.476 45.0059 115.926 47.0643L115.72 47.8335L115.522 47.0911C114.968 45.0179 113.532 43.3041 111.611 42.3907C113.55 41.4816 115.041 39.8122 115.72 37.7633L115.729 37.789C116.402 39.8234 117.88 41.4828 119.804 42.3907Z" fill="#FFDD00" stroke="black" stroke-width="0.48"/>
<path d="M91 125.573H91.24V125.333V94.6667C91.24 93.0614 89.9386 91.76 88.3333 91.76H65.6667C64.0614 91.76 62.76 93.0614 62.76 94.6667V125.333V125.573H63H91Z" fill="white" stroke="black" stroke-width="0.48"/>
</svg>
